<?xml version="1.0" encoding="utf-8"?>
<!-- Generator: Adobe Illustrator 19.0.0, SVG Export Plug-In . SVG Version: 6.00 Build 0)  -->
<svg version="1.1" id="Layer_1" xmlns="http://www.w3.org/2000/svg" xmlns:xlink="http://www.w3.org/1999/xlink" x="0px" y="0px"
	 viewBox="0 0 118.9 50.8" style="enable-background:new 0 0 118.9 50.8;" xml:space="preserve">
<style type="text/css">
	.st0{display:none;}
	.st1{display:inline;fill:#FFFFFF;}
	.st2{fill:#00FF84;}
	.st3{fill:#FFFFFF;}
</style>
<g id="XMLID_391_">
	<g id="XMLID_392_" class="st0">
		<path id="XMLID_684_" class="st1" d="M0.9,14.7V7.4C0.5,7.4,0.2,7.3,0,7.1C-0.2,7-0.3,6.8-0.3,6.5C-0.3,6.2-0.2,6,0,5.8
			c0.2-0.2,0.5-0.3,1-0.3l3.9,0c0.6,0,1.2,0.1,1.8,0.3c0.6,0.2,1,0.5,1.4,0.9C8.4,7,8.6,7.4,8.9,7.8c0.3,0.5,0.5,0.9,0.7,1.4
			s0.2,1,0.2,1.7v0.9c0,0.8-0.1,1.5-0.4,2.1c-0.3,0.6-0.6,1.1-1.1,1.5c-0.4,0.4-0.8,0.7-1.2,0.9c-0.6,0.3-1.4,0.4-2.4,0.4H1
			c-0.5,0-0.8-0.1-1-0.3c-0.2-0.2-0.3-0.4-0.3-0.7c0-0.3,0.1-0.5,0.3-0.7S0.5,14.7,0.9,14.7z M2.8,14.7h2c0.7,0,1.3-0.1,1.7-0.3
			c0.5-0.3,0.9-0.6,1.1-1.1c0.2-0.4,0.4-1,0.4-1.7v-0.9c0-0.6-0.1-1.1-0.3-1.6C7.2,8.5,6.8,8.1,6.4,7.8c-0.4-0.3-1-0.4-1.7-0.4h-2
			V14.7z"/>
		<path id="XMLID_687_" class="st1" d="M21,13.4h-7.7c0.2,0.5,0.5,0.9,1,1.2c0.5,0.3,1.2,0.4,2,0.4c0.7,0,1.6-0.1,2.8-0.4
			c0.5-0.1,0.8-0.2,1-0.2c0.3,0,0.5,0.1,0.6,0.3c0.2,0.2,0.3,0.4,0.3,0.7c0,0.2-0.1,0.5-0.3,0.6c-0.2,0.2-0.8,0.4-1.8,0.6
			c-0.9,0.2-1.9,0.3-2.7,0.3c-1.5,0-2.7-0.4-3.6-1.3s-1.3-1.9-1.3-3.1c0-1.3,0.5-2.4,1.5-3.2c1-0.8,2.1-1.2,3.4-1.2
			c0.8,0,1.5,0.1,2.1,0.4c0.6,0.3,1.1,0.6,1.4,0.9c0.4,0.5,0.8,1,1.1,1.7c0.2,0.5,0.3,1,0.3,1.6V13.4z M18.9,11.5
			c-0.3-0.5-0.7-0.9-1.1-1.2c-0.5-0.3-1-0.4-1.7-0.4c-0.6,0-1.2,0.1-1.6,0.4c-0.5,0.3-0.8,0.7-1.1,1.2H18.9z"/>
		<path id="XMLID_690_" class="st1" d="M27.5,14.3l2-4.1c-0.5,0-0.8,0-1-0.1c-0.3-0.2-0.5-0.5-0.5-0.8c0-0.3,0.1-0.5,0.3-0.7
			c0.2-0.2,0.5-0.3,1-0.3H32c0.5,0,0.8,0.1,1,0.3c0.2,0.2,0.3,0.4,0.3,0.7c0,0.3-0.1,0.5-0.3,0.7c-0.2,0.2-0.5,0.3-1,0.3h-0.3
			l-3.1,6.4h-2l-3.1-6.4h-0.3c-0.5,0-0.8-0.1-1-0.3c-0.2-0.2-0.3-0.4-0.3-0.7c0-0.3,0.1-0.5,0.3-0.7c0.2-0.2,0.5-0.3,1-0.3h2.5
			c0.4,0,0.8,0.1,1,0.3c0.2,0.2,0.3,0.4,0.3,0.7c0,0.3-0.1,0.6-0.4,0.8c-0.1,0.1-0.5,0.1-1,0.1L27.5,14.3z"/>
		<path id="XMLID_692_" class="st1" d="M43.5,13.4h-7.7c0.2,0.5,0.5,0.9,1,1.2c0.5,0.3,1.2,0.4,2,0.4c0.7,0,1.6-0.1,2.8-0.4
			c0.5-0.1,0.8-0.2,1-0.2c0.3,0,0.5,0.1,0.6,0.3c0.2,0.2,0.3,0.4,0.3,0.7c0,0.2-0.1,0.5-0.3,0.6c-0.2,0.2-0.8,0.4-1.8,0.6
			c-0.9,0.2-1.9,0.3-2.7,0.3c-1.5,0-2.7-0.4-3.6-1.3s-1.3-1.9-1.3-3.1c0-1.3,0.5-2.4,1.5-3.2c1-0.8,2.1-1.2,3.4-1.2
			c0.8,0,1.5,0.1,2.1,0.4c0.6,0.3,1.1,0.6,1.4,0.9c0.4,0.5,0.8,1,1.1,1.7c0.2,0.5,0.3,1,0.3,1.6V13.4z M41.4,11.5
			c-0.3-0.5-0.7-0.9-1.1-1.2c-0.5-0.3-1-0.4-1.7-0.4c-0.6,0-1.2,0.1-1.6,0.4c-0.5,0.3-0.8,0.7-1.1,1.2H41.4z"/>
		<path id="XMLID_695_" class="st1" d="M50.9,4.8v10h2.2c0.5,0,0.8,0.1,1,0.3c0.2,0.2,0.3,0.4,0.3,0.7c0,0.3-0.1,0.5-0.3,0.7
			c-0.2,0.2-0.5,0.3-1,0.3h-6.4c-0.5,0-0.8-0.1-1-0.3c-0.2-0.2-0.3-0.4-0.3-0.7c0-0.3,0.1-0.5,0.3-0.7c0.2-0.2,0.5-0.3,1-0.3h2.2
			V6.6h-1.5c-0.4,0-0.8-0.1-1-0.3c-0.2-0.2-0.3-0.4-0.3-0.7c0-0.3,0.1-0.5,0.3-0.7c0.2-0.2,0.5-0.3,1-0.3H50.9z"/>
		<path id="XMLID_697_" class="st1" d="M66.1,12.6c0,0.7-0.2,1.4-0.6,2.1c-0.4,0.7-1,1.2-1.8,1.6s-1.6,0.6-2.5,0.6
			c-0.9,0-1.7-0.2-2.4-0.6c-0.8-0.4-1.4-0.9-1.8-1.6c-0.4-0.7-0.6-1.4-0.6-2.1c0-0.7,0.2-1.5,0.6-2.2c0.4-0.7,1-1.3,1.8-1.7
			s1.6-0.6,2.4-0.6c0.9,0,1.7,0.2,2.5,0.6c0.8,0.4,1.4,1,1.8,1.7C65.9,11.1,66.1,11.9,66.1,12.6z M64.2,12.6c0-0.6-0.2-1.2-0.6-1.7
			c-0.6-0.7-1.4-1-2.3-1c-0.8,0-1.6,0.3-2.1,0.8s-0.8,1.2-0.8,1.9c0,0.6,0.3,1.1,0.9,1.6c0.6,0.5,1.3,0.8,2.1,0.8
			c0.8,0,1.5-0.3,2.1-0.8C63.9,13.8,64.2,13.2,64.2,12.6z"/>
		<path id="XMLID_700_" class="st1" d="M70.1,15.6v3.1h1.1c0.5,0,0.8,0.1,1,0.3c0.2,0.2,0.3,0.4,0.3,0.7c0,0.3-0.1,0.5-0.3,0.7
			c-0.2,0.2-0.5,0.3-1,0.3h-3.3c-0.5,0-0.8-0.1-1-0.3c-0.2-0.2-0.3-0.4-0.3-0.7c0-0.3,0.1-0.5,0.3-0.7c0.2-0.2,0.5-0.3,1-0.3h0.3
			v-8.5h-0.3c-0.5,0-0.8-0.1-1-0.3c-0.2-0.2-0.3-0.4-0.3-0.7c0-0.3,0.1-0.5,0.3-0.7c0.2-0.2,0.5-0.3,1-0.3h2.2V9
			c0.4-0.3,0.9-0.5,1.4-0.7c0.5-0.1,1-0.2,1.4-0.2c1.3,0,2.4,0.4,3.3,1.3s1.4,1.9,1.4,3c0,1.2-0.5,2.3-1.6,3.1c-0.9,0.7-1.9,1-3,1
			c-0.5,0-1-0.1-1.4-0.2C71,16.1,70.6,15.9,70.1,15.6z M75.7,12.4c0-0.3-0.1-0.6-0.3-1c-0.2-0.4-0.5-0.7-1-1
			c-0.4-0.3-0.9-0.4-1.5-0.4c-0.9,0-1.7,0.4-2.2,1.1c-0.4,0.5-0.6,0.9-0.6,1.4c0,0.5,0.3,1,0.8,1.5c0.5,0.5,1.2,0.7,2,0.7
			c0.8,0,1.5-0.2,2-0.7C75.4,13.4,75.7,12.9,75.7,12.4z"/>
		<path id="XMLID_703_" class="st1" d="M88.4,13.4h-7.7c0.2,0.5,0.5,0.9,1,1.2c0.5,0.3,1.2,0.4,2,0.4c0.7,0,1.6-0.1,2.8-0.4
			c0.5-0.1,0.8-0.2,1-0.2c0.2,0,0.5,0.1,0.6,0.3c0.2,0.2,0.3,0.4,0.3,0.7c0,0.2-0.1,0.5-0.3,0.6c-0.2,0.2-0.8,0.4-1.8,0.6
			c-0.9,0.2-1.9,0.3-2.7,0.3c-1.5,0-2.7-0.4-3.6-1.3s-1.3-1.9-1.3-3.1c0-1.3,0.5-2.4,1.5-3.2s2.1-1.2,3.4-1.2c0.8,0,1.5,0.1,2.1,0.4
			S86.7,9,87,9.3c0.4,0.5,0.8,1,1.1,1.7c0.2,0.5,0.3,1,0.3,1.6V13.4z M86.3,11.5c-0.3-0.5-0.7-0.9-1.1-1.2c-0.5-0.3-1-0.4-1.7-0.4
			c-0.6,0-1.2,0.1-1.6,0.4c-0.5,0.3-0.8,0.7-1.1,1.2H86.3z"/>
		<path id="XMLID_706_" class="st1" d="M94.5,8.3v1.2c0.8-0.6,1.4-0.9,1.9-1.1c0.5-0.2,0.9-0.3,1.3-0.3c0.6,0,1.2,0.2,1.8,0.7
			c0.4,0.3,0.6,0.6,0.6,0.9c0,0.3-0.1,0.5-0.3,0.7c-0.2,0.2-0.4,0.3-0.7,0.3c-0.2,0-0.5-0.1-0.7-0.3c-0.3-0.2-0.5-0.3-0.7-0.3
			c-0.3,0-0.7,0.2-1.2,0.5c-0.5,0.3-1.2,0.8-2,1.5v2.8h2.7c0.5,0,0.8,0.1,1,0.3c0.2,0.2,0.3,0.4,0.3,0.7c0,0.3-0.1,0.5-0.3,0.7
			c-0.2,0.2-0.5,0.3-1,0.3h-5.7c-0.5,0-0.8-0.1-1-0.3c-0.2-0.2-0.3-0.4-0.3-0.7c0-0.3,0.1-0.5,0.3-0.7c0.2-0.2,0.5-0.3,1-0.3h1.1
			v-4.5H92c-0.5,0-0.8-0.1-1-0.3c-0.2-0.2-0.3-0.4-0.3-0.7c0-0.3,0.1-0.5,0.3-0.7c0.2-0.2,0.5-0.3,1-0.3H94.5z"/>
	</g>
	<g id="XMLID_393_">
		<path id="XMLID_672_" class="st2" d="M7.3,25.8v12h1.4c1,0,1.6,0.2,2,0.5c0.4,0.4,0.6,0.8,0.6,1.4c0,0.6-0.2,1.1-0.6,1.4
			c-0.4,0.4-1.1,0.5-2,0.5H3.5c-1,0-1.6-0.2-2-0.5c-0.4-0.4-0.6-0.8-0.6-1.4c0-0.6,0.2-1,0.6-1.4s1-0.6,1.9-0.6V22.3H2.7
			c-1,0-1.6-0.2-2-0.5c-0.4-0.4-0.6-0.8-0.6-1.4c0-0.6,0.2-1.1,0.6-1.4c0.4-0.4,1.1-0.5,2-0.5l4.6,0l10.1,15.9V22.3H16
			c-1,0-1.6-0.2-2-0.5c-0.4-0.4-0.6-0.8-0.6-1.4c0-0.6,0.2-1.1,0.6-1.4c0.4-0.4,1.1-0.5,2-0.5l5.2,0c1,0,1.6,0.2,2,0.5
			c0.4,0.4,0.6,0.8,0.6,1.4c0,0.6-0.2,1.1-0.6,1.4c-0.4,0.4-1,0.6-1.8,0.6v19.4h-3.9L7.3,25.8z"/>
		<path id="XMLID_674_" class="st2" d="M39.5,41.7v-0.9c-1,0.5-2.1,0.9-3.3,1.2c-1.2,0.3-2.3,0.4-3.3,0.4c-2.1,0-3.8-0.6-5.2-1.7
			c-1.3-1.1-2-2.4-2-3.7c0-1.7,0.8-3.2,2.5-4.6c1.7-1.4,4-2.1,7-2.1c1.2,0,2.6,0.1,4.1,0.4v-0.9c0-0.6-0.3-1.1-0.8-1.4
			c-0.5-0.4-1.5-0.6-2.9-0.6c-1.2,0-2.7,0.2-4.6,0.7c-0.7,0.2-1.2,0.3-1.6,0.3c-0.5,0-1-0.2-1.3-0.6c-0.4-0.4-0.5-0.9-0.5-1.5
			c0-0.3,0.1-0.6,0.2-0.9c0.1-0.2,0.3-0.4,0.5-0.6c0.2-0.1,0.7-0.3,1.4-0.5c1-0.3,2-0.5,3-0.6s1.9-0.2,2.8-0.2
			c2.5,0,4.4,0.5,5.7,1.6s2,2.5,2,4.3v8.1h0.7c1,0,1.6,0.2,2,0.5s0.6,0.8,0.6,1.4c0,0.6-0.2,1.1-0.6,1.4s-1.1,0.5-2,0.5H39.5z
			 M39.5,34.7c-1.6-0.3-3-0.5-4.4-0.5c-1.6,0-3,0.4-4.1,1.2c-0.7,0.5-1.1,1-1.1,1.5c0,0.4,0.2,0.7,0.5,0.9c0.6,0.4,1.5,0.6,2.6,0.6
			c1,0,2-0.2,3.2-0.6c1.2-0.4,2.3-0.9,3.2-1.5V34.7z"/>
		<path id="XMLID_677_" class="st2" d="M57.4,41.6l-6.8-13.4c-0.6-0.1-1.1-0.3-1.5-0.7c-0.3-0.4-0.5-0.8-0.5-1.3
			c0-0.6,0.2-1.1,0.6-1.4s1.1-0.5,2-0.5h3.6c1,0,1.6,0.2,2,0.5s0.6,0.8,0.6,1.4c0,0.6-0.2,1.1-0.6,1.4s-1,0.5-1.9,0.5l4.7,9.1
			l4.6-9.1c-0.8,0-1.5-0.2-1.9-0.5c-0.4-0.4-0.6-0.8-0.6-1.4c0-0.6,0.2-1.1,0.6-1.4c0.4-0.4,1.1-0.5,2-0.5h3.7c0.9,0,1.6,0.2,2,0.5
			c0.4,0.4,0.6,0.8,0.6,1.4c0,0.5-0.2,1-0.5,1.3s-0.9,0.6-1.5,0.6L59.6,46c1,0,1.6,0.1,1.9,0.3c0.6,0.4,0.9,1,0.9,1.7
			c0,0.6-0.2,1.1-0.6,1.4s-1.1,0.5-2,0.5h-8.6c-1,0-1.6-0.2-2-0.5s-0.6-0.8-0.6-1.4c0-0.6,0.2-1.1,0.6-1.4s1.1-0.5,2-0.5h3.9
			L57.4,41.6z"/>
		<path id="XMLID_679_" class="st2" d="M86.9,41.7v-0.9c-1,0.5-2.1,0.9-3.3,1.2c-1.2,0.3-2.3,0.4-3.3,0.4c-2.1,0-3.8-0.6-5.2-1.7
			c-1.3-1.1-2-2.4-2-3.7c0-1.7,0.8-3.2,2.5-4.6c1.7-1.4,4-2.1,7-2.1c1.2,0,2.6,0.1,4.1,0.4v-0.9c0-0.6-0.3-1.1-0.8-1.4
			c-0.5-0.4-1.5-0.6-2.9-0.6c-1.2,0-2.7,0.2-4.6,0.7c-0.7,0.2-1.2,0.3-1.6,0.3c-0.5,0-1-0.2-1.3-0.6s-0.5-0.9-0.5-1.5
			c0-0.3,0.1-0.6,0.2-0.9c0.1-0.2,0.3-0.4,0.5-0.6c0.2-0.1,0.7-0.3,1.4-0.5c1-0.3,2-0.5,3-0.6s1.9-0.2,2.8-0.2
			c2.5,0,4.4,0.5,5.7,1.6s2,2.5,2,4.3v8.1h0.7c1,0,1.6,0.2,2,0.5c0.4,0.4,0.6,0.8,0.6,1.4c0,0.6-0.2,1.1-0.6,1.4
			c-0.4,0.4-1.1,0.5-2,0.5H86.9z M86.9,34.7c-1.6-0.3-3-0.5-4.4-0.5c-1.6,0-3,0.4-4.1,1.2c-0.7,0.5-1.1,1-1.1,1.5
			c0,0.4,0.2,0.7,0.5,0.9c0.6,0.4,1.5,0.6,2.6,0.6c1,0,2-0.2,3.2-0.6s2.3-0.9,3.2-1.5V34.7z"/>
		<path id="XMLID_682_" class="st2" d="M103,24.2v1.3c0.7-0.6,1.5-1.1,2.4-1.4c0.9-0.3,1.8-0.5,2.8-0.5c2.3,0,4.2,0.7,5.6,2.2
			c1.1,1.2,1.6,2.7,1.6,4.6v7.3c0.8,0,1.5,0.2,1.9,0.5s0.6,0.8,0.6,1.4c0,0.6-0.2,1.1-0.6,1.4c-0.4,0.4-1.1,0.5-2,0.5h-3.6
			c-1,0-1.6-0.2-2-0.5c-0.4-0.4-0.6-0.8-0.6-1.4c0-0.6,0.2-1.1,0.6-1.4c0.4-0.4,1-0.5,1.9-0.5v-7.5c0-0.9-0.2-1.5-0.7-1.9
			c-0.6-0.5-1.5-0.8-2.7-0.8c-0.9,0-1.7,0.2-2.4,0.5s-1.6,1.1-2.6,2.2v7.3c1,0,1.7,0.1,2,0.3c0.6,0.4,0.9,1,0.9,1.7
			c0,0.6-0.2,1.1-0.6,1.4s-1.1,0.5-2,0.5h-4.5c-1,0-1.6-0.2-2-0.5s-0.6-0.8-0.6-1.4c0-0.7,0.3-1.3,0.9-1.7c0.3-0.2,1-0.3,2-0.3v-9.6
			c-0.8,0-1.5-0.2-1.9-0.6c-0.4-0.4-0.6-0.8-0.6-1.4c0-0.6,0.2-1.1,0.6-1.4s1.1-0.5,2-0.5H103z"/>
	</g>
	<g id="XMLID_395_">
		<path id="XMLID_648_" class="st3" d="M1.9,12.4V3.8c-0.5,0-0.8-0.1-1-0.3C0.6,3.3,0.5,3.1,0.5,2.7c0-0.3,0.1-0.6,0.3-0.8
			C1.1,1.7,1.5,1.6,2,1.6l4.6,0C7.3,1.6,8,1.8,8.7,2s1.2,0.6,1.6,1c0.3,0.3,0.6,0.7,1,1.3s0.6,1.1,0.8,1.6c0.2,0.5,0.3,1.2,0.3,1.9
			v1c0,0.9-0.2,1.7-0.5,2.5c-0.3,0.7-0.7,1.3-1.2,1.8c-0.5,0.5-1,0.8-1.4,1c-0.7,0.3-1.6,0.5-2.8,0.5H2c-0.5,0-0.9-0.1-1.1-0.3
			c-0.2-0.2-0.3-0.5-0.3-0.8c0-0.3,0.1-0.6,0.3-0.8C1.1,12.5,1.4,12.4,1.9,12.4z M4.1,12.4h2.3c0.9,0,1.5-0.1,2-0.4
			c0.6-0.3,1-0.7,1.3-1.3c0.3-0.5,0.4-1.2,0.4-2v-1c0-0.7-0.1-1.3-0.4-1.8C9.3,5.1,8.8,4.6,8.3,4.3C7.8,4,7.2,3.8,6.4,3.8H4.1V12.4z
			"/>
		<path id="XMLID_651_" class="st3" d="M25.4,10.9h-9c0.2,0.6,0.6,1,1.2,1.4c0.6,0.3,1.4,0.5,2.4,0.5c0.8,0,1.9-0.2,3.2-0.5
			c0.6-0.1,0.9-0.2,1.2-0.2c0.3,0,0.5,0.1,0.7,0.3c0.2,0.2,0.3,0.5,0.3,0.8c0,0.3-0.1,0.5-0.3,0.7c-0.3,0.3-1,0.5-2.1,0.8
			c-1.1,0.2-2.2,0.4-3.2,0.4c-1.8,0-3.2-0.5-4.2-1.5c-1.1-1-1.6-2.2-1.6-3.7c0-1.5,0.6-2.8,1.7-3.8s2.4-1.4,3.9-1.4
			c0.9,0,1.7,0.2,2.5,0.5c0.7,0.3,1.3,0.7,1.7,1c0.5,0.5,0.9,1.2,1.3,2c0.2,0.5,0.3,1.2,0.3,1.9V10.9z M23,8.7
			c-0.3-0.6-0.8-1.1-1.3-1.4s-1.2-0.5-1.9-0.5c-0.7,0-1.4,0.2-1.9,0.5s-1,0.8-1.3,1.4H23z"/>
		<path id="XMLID_654_" class="st3" d="M33.1,11.9l2.4-4.9c-0.6,0-1,0-1.1-0.1c-0.4-0.2-0.5-0.5-0.5-1c0-0.3,0.1-0.6,0.3-0.8
			s0.6-0.3,1.1-0.3h3c0.5,0,0.9,0.1,1.1,0.3s0.3,0.5,0.3,0.8c0,0.3-0.1,0.6-0.3,0.8s-0.6,0.3-1.1,0.3h-0.4l-3.7,7.5h-2.3l-3.7-7.5
			H28c-0.5,0-0.9-0.1-1.1-0.3c-0.2-0.2-0.3-0.5-0.3-0.8c0-0.3,0.1-0.6,0.3-0.8C27.1,5,27.4,4.9,28,4.9h2.9c0.5,0,0.9,0.1,1.1,0.3
			c0.2,0.2,0.3,0.5,0.3,0.8c0,0.4-0.2,0.7-0.5,0.9c-0.2,0.1-0.6,0.2-1.1,0.2L33.1,11.9z"/>
		<path id="XMLID_656_" class="st3" d="M51.7,10.9h-9c0.2,0.6,0.6,1,1.2,1.4c0.6,0.3,1.4,0.5,2.4,0.5c0.8,0,1.9-0.2,3.2-0.5
			c0.6-0.1,0.9-0.2,1.2-0.2c0.3,0,0.5,0.1,0.7,0.3c0.2,0.2,0.3,0.5,0.3,0.8c0,0.3-0.1,0.5-0.3,0.7c-0.3,0.3-1,0.5-2.1,0.8
			c-1.1,0.2-2.2,0.4-3.2,0.4c-1.8,0-3.2-0.5-4.2-1.5c-1.1-1-1.6-2.2-1.6-3.7c0-1.5,0.6-2.8,1.7-3.8s2.4-1.4,3.9-1.4
			c0.9,0,1.7,0.2,2.5,0.5c0.7,0.3,1.3,0.7,1.7,1c0.5,0.5,0.9,1.2,1.3,2c0.2,0.5,0.3,1.2,0.3,1.9V10.9z M49.3,8.7
			C48.9,8,48.5,7.6,48,7.3S46.8,6.8,46,6.8c-0.7,0-1.4,0.2-1.9,0.5s-1,0.8-1.3,1.4H49.3z"/>
		<path id="XMLID_659_" class="st3" d="M60.4,0.7v11.7h2.6c0.5,0,0.9,0.1,1.1,0.3s0.3,0.5,0.3,0.8c0,0.3-0.1,0.6-0.3,0.8
			s-0.6,0.3-1.1,0.3h-7.5c-0.5,0-0.9-0.1-1.1-0.3s-0.3-0.5-0.3-0.8c0-0.3,0.1-0.6,0.3-0.8s0.6-0.3,1.1-0.3h2.6V2.9h-1.8
			c-0.5,0-0.9-0.1-1.1-0.3C55.1,2.4,55,2.2,55,1.8c0-0.3,0.1-0.6,0.3-0.8s0.6-0.3,1.1-0.3H60.4z"/>
		<path id="XMLID_661_" class="st3" d="M78.2,9.9c0,0.8-0.2,1.7-0.7,2.4s-1.2,1.4-2.1,1.9c-0.9,0.5-1.9,0.7-2.9,0.7
			c-1,0-2-0.2-2.9-0.7c-0.9-0.5-1.6-1.1-2.1-1.9s-0.7-1.6-0.7-2.5c0-0.9,0.2-1.7,0.7-2.6c0.5-0.8,1.2-1.5,2.1-2
			c0.9-0.5,1.9-0.7,2.8-0.7c1,0,2,0.2,2.9,0.7c0.9,0.5,1.6,1.2,2.1,2C77.9,8.2,78.2,9,78.2,9.9z M76,9.9c0-0.7-0.3-1.4-0.8-1.9
			c-0.7-0.8-1.6-1.2-2.7-1.2c-1,0-1.8,0.3-2.5,1c-0.7,0.6-1,1.4-1,2.2c0,0.7,0.3,1.3,1,1.9s1.5,0.9,2.5,0.9c1,0,1.8-0.3,2.5-0.9
			S76,10.6,76,9.9z"/>
		<path id="XMLID_664_" class="st3" d="M82.9,13.4V17h1.3c0.5,0,0.9,0.1,1.1,0.3c0.2,0.2,0.3,0.5,0.3,0.8c0,0.3-0.1,0.6-0.3,0.8
			c-0.2,0.2-0.6,0.3-1.1,0.3h-3.9c-0.5,0-0.9-0.1-1.1-0.3s-0.3-0.5-0.3-0.8c0-0.3,0.1-0.6,0.3-0.8c0.2-0.2,0.6-0.3,1.1-0.3h0.4V7.1
			h-0.4c-0.5,0-0.9-0.1-1.1-0.3S78.9,6.3,78.9,6c0-0.3,0.1-0.6,0.3-0.8s0.6-0.3,1.1-0.3h2.6v0.7c0.5-0.3,1-0.6,1.6-0.8
			c0.5-0.2,1.1-0.3,1.7-0.3c1.5,0,2.8,0.5,3.8,1.5s1.6,2.2,1.6,3.5c0,1.4-0.6,2.6-1.9,3.6c-1,0.8-2.2,1.2-3.5,1.2
			c-0.6,0-1.1-0.1-1.7-0.2S83.4,13.7,82.9,13.4z M89.4,9.6c0-0.3-0.1-0.7-0.4-1.2c-0.2-0.5-0.6-0.9-1.1-1.2
			c-0.5-0.3-1.1-0.5-1.8-0.5c-1.1,0-2,0.4-2.6,1.2c-0.4,0.6-0.7,1.1-0.7,1.6c0,0.6,0.3,1.2,0.9,1.7s1.4,0.8,2.3,0.8
			c0.9,0,1.7-0.3,2.3-0.8S89.4,10.2,89.4,9.6z"/>
		<path id="XMLID_667_" class="st3" d="M104.3,10.9h-9c0.2,0.6,0.6,1,1.2,1.4c0.6,0.3,1.4,0.5,2.4,0.5c0.8,0,1.9-0.2,3.2-0.5
			c0.6-0.1,0.9-0.2,1.2-0.2c0.3,0,0.5,0.1,0.7,0.3c0.2,0.2,0.3,0.5,0.3,0.8c0,0.3-0.1,0.5-0.3,0.7c-0.3,0.3-1,0.5-2.1,0.8
			c-1.1,0.2-2.2,0.4-3.2,0.4c-1.8,0-3.2-0.5-4.2-1.5c-1.1-1-1.6-2.2-1.6-3.7c0-1.5,0.6-2.8,1.7-3.8c1.1-1,2.4-1.4,3.9-1.4
			c0.9,0,1.7,0.2,2.5,0.5c0.7,0.3,1.3,0.7,1.7,1c0.5,0.5,0.9,1.2,1.3,2c0.2,0.5,0.3,1.2,0.3,1.9V10.9z M101.8,8.7
			c-0.3-0.6-0.8-1.1-1.3-1.4s-1.2-0.5-1.9-0.5c-0.7,0-1.4,0.2-1.9,0.5s-1,0.8-1.3,1.4H101.8z"/>
		<path id="XMLID_670_" class="st3" d="M111.4,4.9v1.4c0.9-0.7,1.6-1.1,2.2-1.3c0.5-0.2,1-0.3,1.5-0.3c0.7,0,1.4,0.3,2.1,0.8
			c0.5,0.4,0.7,0.7,0.7,1.1c0,0.3-0.1,0.6-0.3,0.8c-0.2,0.2-0.5,0.3-0.8,0.3c-0.3,0-0.6-0.1-0.9-0.4s-0.6-0.4-0.8-0.4
			c-0.3,0-0.8,0.2-1.4,0.6s-1.4,1-2.3,1.7v3.3h3.1c0.5,0,0.9,0.1,1.1,0.3c0.2,0.2,0.3,0.5,0.3,0.8c0,0.3-0.1,0.6-0.3,0.8
			c-0.2,0.2-0.6,0.3-1.1,0.3h-6.6c-0.5,0-0.9-0.1-1.1-0.3s-0.3-0.5-0.3-0.8c0-0.3,0.1-0.6,0.3-0.8s0.6-0.3,1.1-0.3h1.3V7.1h-0.8
			c-0.5,0-0.9-0.1-1.1-0.3S107,6.3,107,6c0-0.3,0.1-0.6,0.3-0.8s0.6-0.3,1.1-0.3H111.4z"/>
	</g>
</g>
<g id="XMLID_647_">
</g>
<g id="XMLID_708_">
</g>
<g id="XMLID_709_">
</g>
<g id="XMLID_710_">
</g>
<g id="XMLID_711_">
</g>
<g id="XMLID_712_">
</g>
</svg>
