<svg version="1.2" xmlns="http://www.w3.org/2000/svg" viewBox="0 0 100 50" width="100" height="50">
	<title>main-logo</title>
	<style>
		.s0 { fill: #ffffff } 
		.s1 { fill: #00ff84 } 
	</style>
	<path id="Developer" class="s0" aria-label="Developer"  d="m6.2 1.7h-5v13.3h5c4.2 0 7-2.7 7-6.7 0-3.9-2.8-6.6-7-6.6zm-1.8 10.5v-7.8h1.6c2.4 0 3.9 1.5 3.9 3.9 0 2.5-1.5 3.9-3.9 3.9zm15.2-5.4c1.1 0 2 0.7 2 1.9h-4.1c0.2-1.2 1-1.9 2.1-1.9zm5.1 4.7h-3.5c-0.2 0.6-0.8 1-1.7 1-1 0-1.9-0.6-2-2h7.4c0-0.3 0-0.7 0-1 0-3.2-2.2-5.3-5.3-5.3-3.1 0-5.3 2.1-5.3 5.5 0 3.4 2.2 5.5 5.3 5.5 2.7 0 4.6-1.6 5.1-3.7zm0.9-7.1l3.8 10.6h4l3.8-10.6h-3.5l-2.3 7.6-2.3-7.6zm17.6 2.4c1.1 0 2 0.7 2 1.9h-4.1c0.2-1.2 1-1.9 2.1-1.9zm5.1 4.7h-3.5c-0.3 0.6-0.8 1-1.7 1-1 0-1.9-0.6-2-2h7.3c0.1-0.3 0.1-0.7 0.1-1 0-3.2-2.2-5.3-5.3-5.3-3.1 0-5.3 2.1-5.3 5.5 0 3.4 2.2 5.5 5.3 5.5 2.7 0 4.5-1.6 5.1-3.7zm1.9 3.5h3.3v-14.1h-3.3zm16-5.3c0-3.3-2.4-5.4-5.5-5.4-3.1 0-5.5 2.1-5.5 5.4 0 3.4 2.3 5.5 5.4 5.5 3.2 0 5.6-2.1 5.6-5.5zm-7.7 0c0-1.8 1-2.6 2.2-2.6 1.1 0 2.2 0.8 2.2 2.6 0 1.8-1.1 2.7-2.3 2.7-1.1 0-2.1-0.9-2.1-2.7zm12.7-3.8v-1.5h-3.3v15.7h3.3v-6.5c0.6 0.9 1.7 1.6 3.2 1.6 2.6 0 4.7-2.1 4.7-5.5 0-3.3-2.1-5.4-4.7-5.4-1.5 0-2.6 0.7-3.2 1.6zm4.6 3.8c0 1.7-1.1 2.7-2.3 2.7-1.3 0-2.4-1-2.4-2.7 0-1.7 1.1-2.6 2.4-2.6 1.2 0 2.3 0.9 2.3 2.6zm9.7-2.8c1.1 0 2 0.7 2 1.8h-4.1c0.2-1.2 1-1.8 2.1-1.8zm5.1 4.6h-3.5c-0.3 0.6-0.8 1.1-1.7 1.1-1 0-1.9-0.7-2-2.1h7.4c0-0.3 0-0.6 0-0.9 0-3.3-2.2-5.3-5.3-5.3-3.1 0-5.3 2.1-5.3 5.4 0 3.4 2.2 5.5 5.3 5.5 2.7 0 4.6-1.6 5.1-3.7zm5.2-1.4c0-1.8 0.9-2.3 2.4-2.3h0.9v-3.5c-1.4 0-2.6 0.8-3.3 1.9v-1.8h-3.3v10.6h3.3z"/>
	<path id="Nayan" class="s1" aria-label="Nayan"  d="m14.6 19.9v13.1l-8.6-13.1h-5.1v21.1h5.1v-13l8.6 13h5.1v-21.1zm7.8 12.7c0 5.3 3.3 8.6 7.4 8.6 2.5 0 4.2-1.1 5.2-2.6v2.4h5.1v-16.7h-5.1v2.3c-0.9-1.4-2.7-2.6-5.2-2.6-4.1 0-7.4 3.3-7.4 8.6zm12.6 0c0 2.7-1.7 4.2-3.7 4.2-1.9 0-3.7-1.5-3.7-4.2 0-2.7 1.8-4.1 3.7-4.1 2 0 3.7 1.5 3.7 4.1zm16.5 2.1l-3.8-10.4h-5.8l6.8 16.1-3.8 8.6h5.5l10.5-24.7h-5.5zm10.2-2.2c0 5.3 3.3 8.7 7.4 8.7 2.4 0 4.2-1.2 5.1-2.6v2.3h5.2v-16.7h-5.2v2.4c-0.9-1.5-2.6-2.7-5.1-2.7-4.1 0-7.4 3.3-7.4 8.6zm12.5 0.1c0 2.6-1.7 4.1-3.6 4.1-1.9 0-3.7-1.5-3.7-4.2 0-2.6 1.8-4.1 3.7-4.1 1.9 0 3.6 1.5 3.6 4.2zm20.4 8.3h5.1v-9.8c0-4.5-2.5-7.1-6.4-7.1-2.3 0-4.1 1-5.1 2.4v-2.2h-5.1v16.7h5.1v-9.1c0-2.2 1.3-3.5 3.2-3.5 2 0 3.2 1.3 3.2 3.5z"/>
</svg>